<svg width="17" height="17" viewBox="0 0 17 17" fill="none" xmlns="http://www.w3.org/2000/svg">
<path opacity="0.5" d="M9.91699 0C11.873 0 13.4587 1.58566 13.4587 3.54167V12.0417C13.4587 14.7801 11.2387 17 8.50033 17C5.76192 17 3.54199 14.7801 3.54199 12.0417V6.375H4.95866V12.0417C4.95866 13.9977 6.54432 15.5833 8.50033 15.5833C10.4563 15.5833 12.042 13.9977 12.042 12.0417V3.54167C12.042 2.36806 11.0906 1.41667 9.91699 1.41667C8.74335 1.41667 7.79199 2.36806 7.79199 3.54167V12.0417C7.79199 12.4329 8.10911 12.75 8.50033 12.75C8.89154 12.75 9.20866 12.4329 9.20866 12.0417V4.25H10.6253V12.0417C10.6253 13.2153 9.67396 14.1667 8.50033 14.1667C7.32669 14.1667 6.37533 13.2153 6.37533 12.0417V3.54167C6.37533 1.58566 7.961 0 9.91699 0Z" fill="#0A0A0A"/>
</svg>
