<svg width="56" height="56" viewBox="0 0 56 56" fill="none" xmlns="http://www.w3.org/2000/svg">
<circle cx="28" cy="28" r="24" stroke="url(#paint0_linear_88_1632)" stroke-width="2"/>
<path d="M11.3046 33.0714V23.2714H15.7566C16.8206 23.2714 17.7586 23.4767 18.5706 23.8874C19.3826 24.2887 20.0172 24.8534 20.4746 25.5814C20.9319 26.3094 21.1606 27.1727 21.1606 28.1714C21.1606 29.1607 20.9319 30.0241 20.4746 30.7614C20.0172 31.4894 19.3826 32.0587 18.5706 32.4694C17.7586 32.8707 16.8206 33.0714 15.7566 33.0714H11.3046ZM13.5726 31.2094H15.6446C16.2979 31.2094 16.8626 31.0881 17.3386 30.8454C17.8239 30.5934 18.1972 30.2387 18.4586 29.7814C18.7292 29.3241 18.8646 28.7874 18.8646 28.1714C18.8646 27.5461 18.7292 27.0094 18.4586 26.5614C18.1972 26.1041 17.8239 25.7541 17.3386 25.5114C16.8626 25.2594 16.2979 25.1334 15.6446 25.1334H13.5726V31.2094ZM26.735 33.1834C25.8763 33.1834 25.1203 33.0154 24.467 32.6794C23.823 32.3434 23.3237 31.8861 22.969 31.3074C22.6143 30.7194 22.437 30.0521 22.437 29.3054C22.437 28.5494 22.6097 27.8821 22.955 27.3034C23.3097 26.7154 23.7903 26.2581 24.397 25.9314C25.0037 25.5954 25.6897 25.4274 26.455 25.4274C27.1923 25.4274 27.855 25.5861 28.443 25.9034C29.0403 26.2114 29.5117 26.6594 29.857 27.2474C30.2023 27.8261 30.375 28.5214 30.375 29.3334C30.375 29.4174 30.3703 29.5154 30.361 29.6274C30.3517 29.7301 30.3423 29.8281 30.333 29.9214H24.215V28.6474H29.185L28.345 29.0254C28.345 28.6334 28.2657 28.2927 28.107 28.0034C27.9483 27.7141 27.729 27.4901 27.449 27.3314C27.169 27.1634 26.8423 27.0794 26.469 27.0794C26.0957 27.0794 25.7643 27.1634 25.475 27.3314C25.195 27.4901 24.9757 27.7187 24.817 28.0174C24.6583 28.3067 24.579 28.6521 24.579 29.0534V29.3894C24.579 29.8001 24.6677 30.1641 24.845 30.4814C25.0317 30.7894 25.2883 31.0274 25.615 31.1954C25.951 31.3541 26.343 31.4334 26.791 31.4334C27.1923 31.4334 27.5423 31.3727 27.841 31.2514C28.149 31.1301 28.429 30.9481 28.681 30.7054L29.843 31.9654C29.4977 32.3574 29.0637 32.6607 28.541 32.8754C28.0183 33.0807 27.4163 33.1834 26.735 33.1834ZM34.363 27.6814H39.067V29.5014H34.363V27.6814ZM34.531 33.0714H32.263V23.2714H39.669V25.0914H34.531V33.0714ZM41.3304 33.0714V25.5394H43.5144V33.0714H41.3304ZM42.4224 24.4894C42.0211 24.4894 41.6944 24.3727 41.4424 24.1394C41.1904 23.9061 41.0644 23.6167 41.0644 23.2714C41.0644 22.9261 41.1904 22.6367 41.4424 22.4034C41.6944 22.1701 42.0211 22.0534 42.4224 22.0534C42.8238 22.0534 43.1504 22.1654 43.4024 22.3894C43.6544 22.6041 43.7804 22.8841 43.7804 23.2294C43.7804 23.5934 43.6544 23.8967 43.4024 24.1394C43.1598 24.3727 42.8331 24.4894 42.4224 24.4894Z" fill="url(#paint1_linear_88_1632)"/>
<defs>
<linearGradient id="paint0_linear_88_1632" x1="14.1538" y1="4.5625" x2="63.8391" y2="39.8001" gradientUnits="userSpaceOnUse">
<stop stop-color="#CDFF7C"/>
<stop offset="0.460938" stop-color="#8CFFAC"/>
<stop offset="0.994792" stop-color="#93FFEB"/>
</linearGradient>
<linearGradient id="paint1_linear_88_1632" x1="18.1096" y1="19.6015" x2="34.6272" y2="44.2637" gradientUnits="userSpaceOnUse">
<stop stop-color="#CDFF7C"/>
<stop offset="0.460938" stop-color="#8CFFAC"/>
<stop offset="0.994792" stop-color="#93FFEB"/>
</linearGradient>
</defs>
</svg>
