<svg width="130" height="40" viewBox="0 0 130 40" fill="none" xmlns="http://www.w3.org/2000/svg">
<path d="M84.2144 9.55036C78.5791 9.57742 73.9885 14.2092 74.0144 19.9762C74.0403 25.7433 78.6767 30.3315 84.312 30.3056C89.9473 30.2798 94.5391 25.6468 94.512 19.8821C94.485 14.1174 89.8497 9.52565 84.212 9.55271L84.2144 9.55036ZM84.292 26.0762C82.6944 26.0857 81.1591 25.4586 80.0238 24.3351C78.8885 23.2115 78.2591 21.6809 78.2414 20.0833C78.2238 18.4856 78.8591 16.9504 79.9826 15.8151C81.1061 14.6798 82.6367 14.0504 84.2344 14.0327C85.832 14.0151 87.3673 14.6504 88.5026 15.7739C89.6379 16.8974 90.2673 18.428 90.285 20.0257C90.3014 23.2315 87.4967 26.0609 84.292 26.0774V26.0762ZM107.045 14.4386C104.098 14.4527 101.803 16.8974 101.817 19.8445L101.864 29.7092L97.3791 29.7304L97.2885 10.1268L101.773 10.1057L101.788 13.1798C101.788 13.1798 103.694 10.0974 107.539 10.0798L108.821 10.0727L108.843 14.428L107.045 14.4386ZM62.3085 10.2939L65.7038 23.7315L69.2285 10.2609L73.7132 10.2409L68.165 29.8821L63.8097 29.9021L60.2873 16.2104L56.892 29.9339L52.5355 29.9539L46.6791 10.3774L51.0344 10.3574L54.9403 23.7927L58.0814 10.3245L62.3085 10.2939ZM121.926 18.9833C124.991 17.1762 127.156 13.8339 127.138 9.99036L122.653 10.0115C122.67 13.3433 119.99 16.0468 116.787 16.0586L116.146 16.0609L116.076 0.558594L111.591 0.57977L111.728 29.6621L116.211 29.6421L116.168 20.4186L116.68 20.4162C117.193 20.4139 117.707 20.668 117.838 21.0515L124.156 29.6045L129.408 29.5809L121.926 18.9833Z" fill="#4B4B4B"/>
<path d="M36.2977 9.77635C31.4306 9.79988 27.7294 13.0199 26.3447 18.1505C24.0212 14.574 22.2083 10.4834 21.1683 7.0293L16.0447 7.05283L16.1083 20.6328C16.1139 21.924 15.6066 23.1645 14.6979 24.0818C13.7893 24.9991 12.5535 25.5181 11.2624 25.5246C9.97122 25.5302 8.73066 25.0229 7.81338 24.1143C6.89609 23.2056 6.37715 21.9699 6.37061 20.6787L6.3059 7.09871L1.18002 7.12224L1.24355 20.7022C1.27061 26.3375 5.77296 30.8034 11.2836 30.7764C16.7941 30.7493 21.2577 26.2446 21.2318 20.6081L21.22 18.3022C22.253 20.3458 23.5447 22.5175 24.9647 24.434L21.8318 39.4375L27.0836 39.414L29.3424 28.5128C31.3977 29.7858 33.6953 30.5422 36.3965 30.5293C42.0341 30.5022 46.6259 25.8705 46.5965 19.9764C46.5751 17.2607 45.4802 14.6639 43.5509 12.7527C41.6216 10.8414 39.0145 9.77105 36.2988 9.77518L36.2977 9.77635ZM36.3706 25.2787C34.3212 25.2881 32.2683 24.4011 30.5965 22.9987L31.0988 20.9481V20.8305C31.4753 18.6493 32.6071 14.9293 36.4518 14.9128C37.8074 14.9106 39.1091 15.4438 40.0735 16.3966C41.0379 17.3493 41.5869 18.6443 41.6012 19.9999C41.4859 22.9469 39.0635 25.2646 36.3718 25.2775L36.3706 25.2787Z" fill="#6FDA44"/>
</svg>
