<svg width="31" height="30" viewBox="0 0 31 30" fill="none" xmlns="http://www.w3.org/2000/svg">
<rect x="0.5" width="30" height="30" rx="15" fill="url(#paint0_linear_230_2450)"/>
<path d="M21.2144 8.57153H9.78585C8.21443 8.57153 6.92871 9.85725 6.92871 11.4287V18.5715C6.92871 20.143 8.21443 21.4287 9.78585 21.4287H21.2144C22.7859 21.4287 24.0716 20.143 24.0716 18.5715V11.4287C24.0716 9.85725 22.7859 8.57153 21.2144 8.57153ZM22.3573 12.7144L16.7144 16.5001C16.3573 16.7144 15.9287 16.8572 15.5001 16.8572C15.0716 16.8572 14.643 16.7144 14.2859 16.5001L8.643 12.7144C8.35728 12.5001 8.28585 12.0715 8.50014 11.7144C8.71443 11.4287 9.143 11.3572 9.50014 11.5715L15.143 15.3572C15.3573 15.5001 15.7144 15.5001 15.9287 15.3572L21.5716 11.5715C21.9287 11.3572 22.3573 11.4287 22.5716 11.7858C22.7144 12.0715 22.643 12.5001 22.3573 12.7144Z" fill="black"/>
<defs>
<linearGradient id="paint0_linear_230_2450" x1="7.19231" y1="0.9375" x2="37.0035" y2="22.08" gradientUnits="userSpaceOnUse">
<stop stop-color="#CDFF7C"/>
<stop offset="0.460938" stop-color="#8CFFAC"/>
<stop offset="0.994792" stop-color="#93FFEB"/>
</linearGradient>
</defs>
</svg>
