<svg width="31" height="30" viewBox="0 0 31 30" fill="none" xmlns="http://www.w3.org/2000/svg">
<rect x="0.5" width="30" height="30" rx="15" fill="#C9FA3D" fill-opacity="0.74"/>
<path d="M22.0625 20.4797V20.9062C22.0625 21.0803 21.9934 21.2472 21.8703 21.3703C21.7472 21.4934 21.5803 21.5625 21.4062 21.5625H20.0938C17.1349 21.5625 14.2973 20.3871 12.2051 18.2949C10.1129 16.2027 8.9375 13.3651 8.9375 10.4062V9.09375C8.9375 8.9197 9.00664 8.75278 9.12971 8.62971C9.25278 8.50664 9.4197 8.4375 9.59375 8.4375H12.2188C12.3928 8.4375 12.5597 8.50664 12.6828 8.62971C12.8059 8.75278 12.875 8.9197 12.875 9.09375V11.7188C12.875 12.0863 12.6716 12.5784 12.4156 12.8344L11.0113 14.2387C12.0087 16.6012 13.8987 18.4913 16.2613 19.4888L17.6525 18.0975C17.915 17.835 18.4072 17.6316 18.7681 17.6316H21.4062C21.5792 17.6333 21.7444 17.7032 21.8661 17.8261C21.9877 17.949 22.0559 18.1149 22.0559 18.2878V20.4862L22.0625 20.4797Z" fill="black"/>
</svg>
