<svg width="31" height="30" viewBox="0 0 31 30" fill="none" xmlns="http://www.w3.org/2000/svg">
<path d="M15.5 30C23.7843 30 30.5 23.2843 30.5 15C30.5 6.71573 23.7843 0 15.5 0C7.21573 0 0.5 6.71573 0.5 15C0.5 23.2843 7.21573 30 15.5 30Z" fill="url(#paint0_linear_230_2456)"/>
<path d="M22.8013 8.6308L20.1235 22.1367C20.1235 22.1367 19.7485 23.0742 18.7173 22.623L12.5356 17.8828L10.2856 16.7988L6.50049 15.5273C6.50049 15.5273 5.92041 15.3222 5.86181 14.871C5.80322 14.4199 6.51806 14.1796 6.51806 14.1796L21.5649 8.27924C21.5649 8.27338 22.8013 7.72846 22.8013 8.6308Z" fill="white"/>
<path d="M12.0547 21.9844C12.0547 21.9844 11.873 21.9668 11.6504 21.2578C11.4277 20.5488 10.2852 16.7988 10.2852 16.7988L19.373 11.0273C19.373 11.0273 19.9004 10.7109 19.877 11.0273C19.877 11.0273 19.9707 11.0859 19.6895 11.3438C19.4082 11.6074 12.5527 17.7715 12.5527 17.7715" fill="#D2E4F0"/>
<path d="M14.9033 19.6992L12.46 21.9316C12.46 21.9316 12.2666 22.0781 12.0615 21.9844L12.5303 17.8418" fill="#B5CFE4"/>
<defs>
<linearGradient id="paint0_linear_230_2456" x1="15.5" y1="0" x2="15.5" y2="29.8906" gradientUnits="userSpaceOnUse">
<stop stop-color="#41BCE7"/>
<stop offset="1" stop-color="#22A6DC"/>
</linearGradient>
</defs>
</svg>
