<svg width="250" height="29" viewBox="0 0 250 29" fill="none" xmlns="http://www.w3.org/2000/svg">
<g clip-path="url(#clip0_301_800)">
<path d="M13.8799 23.512C11.5119 23.512 9.37855 23.0213 7.47988 22.04C5.58121 21.0373 4.08788 19.6507 2.99988 17.88C1.93321 16.088 1.39988 14.0613 1.39988 11.8C1.39988 9.53867 1.93321 7.52267 2.99988 5.752C4.08788 3.96 5.58121 2.57333 7.47988 1.592C9.37855 0.589333 11.5119 0.0879993 13.8799 0.0879993C16.0559 0.0879993 17.9972 0.471999 19.7039 1.24C21.4105 2.008 22.8185 3.11733 23.9279 4.568L19.1599 8.824C17.7732 7.07467 16.1412 6.2 14.2639 6.2C12.6852 6.2 11.4159 6.712 10.4559 7.736C9.49588 8.73867 9.01588 10.0933 9.01588 11.8C9.01588 13.5067 9.49588 14.872 10.4559 15.896C11.4159 16.8987 12.6852 17.4 14.2639 17.4C16.1412 17.4 17.7732 16.5253 19.1599 14.776L23.9279 19.032C22.8185 20.4827 21.4105 21.592 19.7039 22.36C17.9972 23.128 16.0559 23.512 13.8799 23.512ZM37.3084 17.368H35.2604V23H27.7084V0.599998H38.4924C40.5617 0.599998 42.3644 0.941332 43.9004 1.624C45.4364 2.30667 46.6204 3.288 47.4524 4.568C48.2844 5.848 48.7004 7.34133 48.7004 9.048C48.7004 10.648 48.3377 12.0453 47.6124 13.24C46.887 14.4347 45.8417 15.384 44.4764 16.088L49.1804 23H41.1164L37.3084 17.368ZM41.0844 9.048C41.0844 8.216 40.8284 7.576 40.3164 7.128C39.8044 6.65867 39.0364 6.424 38.0124 6.424H35.2604V11.672H38.0124C39.0364 11.672 39.8044 11.448 40.3164 11C40.8284 10.5307 41.0844 9.88 41.0844 9.048ZM66.1516 14.872V23H58.5996V14.776L50.1516 0.599998H58.1196L62.6956 8.344L67.3036 0.599998H74.5996L66.1516 14.872ZM87.9424 0.599998C90.0117 0.599998 91.8144 0.941332 93.3504 1.624C94.8864 2.30667 96.0704 3.288 96.9024 4.568C97.7344 5.848 98.1504 7.34133 98.1504 9.048C98.1504 10.7547 97.7344 12.248 96.9024 13.528C96.0704 14.808 94.8864 15.7893 93.3504 16.472C91.8144 17.1547 90.0117 17.496 87.9424 17.496H84.7104V23H77.1584V0.599998H87.9424ZM87.4624 11.672C88.4864 11.672 89.2544 11.448 89.7664 11C90.2784 10.5307 90.5344 9.88 90.5344 9.048C90.5344 8.216 90.2784 7.576 89.7664 7.128C89.2544 6.65867 88.4864 6.424 87.4624 6.424H84.7104V11.672H87.4624ZM106.591 6.456H100.031V0.599998H120.703V6.456H114.143V23H106.591V6.456ZM135.696 23.512C133.285 23.512 131.12 23.0107 129.2 22.008C127.28 21.0053 125.776 19.6187 124.688 17.848C123.6 16.056 123.056 14.04 123.056 11.8C123.056 9.56 123.6 7.55467 124.688 5.784C125.776 3.992 127.28 2.59467 129.2 1.592C131.12 0.589333 133.285 0.0879993 135.696 0.0879993C138.107 0.0879993 140.272 0.589333 142.192 1.592C144.112 2.59467 145.616 3.992 146.704 5.784C147.792 7.55467 148.336 9.56 148.336 11.8C148.336 14.04 147.792 16.056 146.704 17.848C145.616 19.6187 144.112 21.0053 142.192 22.008C140.272 23.0107 138.107 23.512 135.696 23.512ZM135.696 17.4C136.635 17.4 137.477 17.176 138.224 16.728C138.992 16.2587 139.6 15.608 140.048 14.776C140.496 13.9227 140.72 12.9307 140.72 11.8C140.72 10.6693 140.496 9.688 140.048 8.856C139.6 8.00267 138.992 7.352 138.224 6.904C137.477 6.43467 136.635 6.2 135.696 6.2C134.757 6.2 133.904 6.43467 133.136 6.904C132.389 7.352 131.792 8.00267 131.344 8.856C130.896 9.688 130.672 10.6693 130.672 11.8C130.672 12.9307 130.896 13.9227 131.344 14.776C131.792 15.608 132.389 16.2587 133.136 16.728C133.904 17.176 134.757 17.4 135.696 17.4ZM172.677 23L172.613 12.792L167.749 20.984H164.421L159.557 13.144V23H152.677V0.599998H158.885L166.181 12.536L173.285 0.599998H179.493L179.557 23H172.677ZM184.808 0.599998H192.36V23H184.808V0.599998ZM219.676 0.599998V23H213.468L204.956 12.824V23H197.596V0.599998H203.804L212.316 10.776V0.599998H219.676ZM224.915 0.599998H235.955C238.451 0.599998 240.648 1.05867 242.547 1.976C244.467 2.872 245.949 4.16267 246.995 5.848C248.061 7.53333 248.595 9.51733 248.595 11.8C248.595 14.0827 248.061 16.0667 246.995 17.752C245.949 19.4373 244.467 20.7387 242.547 21.656C240.648 22.552 238.451 23 235.955 23H224.915V0.599998ZM235.635 17.112C237.256 17.112 238.547 16.6533 239.507 15.736C240.488 14.7973 240.979 13.4853 240.979 11.8C240.979 10.1147 240.488 8.81333 239.507 7.896C238.547 6.95733 237.256 6.488 235.635 6.488H232.467V17.112H235.635Z" fill="white"/>
</g>
<defs>
<clipPath id="clip0_301_800">
<rect width="250" height="29" fill="white"/>
</clipPath>
</defs>
</svg>
